<mxfile host="app.diagrams.net" modified="2023-09-05T09:46:10.986Z" agent="Mozilla/5.0 (Macintosh; Intel Mac OS X 10_15_7) AppleWebKit/537.36 (KHTML, like Gecko) Chrome/115.0.0.0 Safari/537.36" version="21.7.0" etag="H9dTKc0rk2Tszqw4NMAN" type="github">
  <diagram name="第 1 页" id="A36YN1YThOR17HlN6apy">
    <mxGraphModel>
      <root>
        <mxCell id="0" />
        <mxCell id="1" parent="0" />
      </root>
    </mxGraphModel>
  </diagram>
</mxfile>
